<svg xmlns="http://www.w3.org/2000/svg" viewBox="0 0 500 500"><g id="freepik--background-simple--inject-268"><path d="M327.83,53.06S248.49,21.89,172.61,65.88,60.28,200.38,28.83,272.82,18.63,420.43,78.41,456.1s98.47-13.38,181-13.52,105.06,12.73,172.29-33.76,76.55-160.45,20.22-246.54S327.83,53.06,327.83,53.06Z" style="fill:#92E3A9"></path><path d="M327.83,53.06S248.49,21.89,172.61,65.88,60.28,200.38,28.83,272.82,18.63,420.43,78.41,456.1s98.47-13.38,181-13.52,105.06,12.73,172.29-33.76,76.55-160.45,20.22-246.54S327.83,53.06,327.83,53.06Z" style="fill:#fff;opacity:0.7000000000000001"></path></g><g id="freepik--Character--inject-268"><path d="M237.54,173.07s0,21.59-.55,23.77-21,6.66-21,6.66,14.71,11.65,37.66,11.1S287,198.48,287,198.48L274.5,195l-1.71-19.2S249.84,181.54,237.54,173.07Z" style="fill:#fff;stroke:#263238;stroke-linecap:round;stroke-linejoin:round"></path><path d="M217.4,200.65l6.07-4.72s9.78,5,27.31,5,26-2.69,29-5.39l3-2.7,9.78,3.71s-3,2.7-11.47,9.78-47.2,5.39-57.31,1.35S217.4,200.65,217.4,200.65Z" style="fill:#92E3A9;stroke:#263238;stroke-linecap:round;stroke-linejoin:round"></path><path d="M267.33,182l-9.17-4.32c-6.93.19-14.92-.68-20.62-4.61,0,0,0,17-.38,22.34C263.36,195.37,267.33,182,267.33,182Z" style="fill:#263238;stroke:#263238;stroke-linecap:round;stroke-linejoin:round"></path><path d="M220.73,127.13c0,1.51,2.27,32.88,4.31,38.58,4.77,13.35,21.24,28.79,36.23,21.29,5.34-2.67,10.3-7.06,14.93-10.77,3.27-2.62,9.49-6.41,11-10.58s10.19-29.84,10.19-29.84-2.26-21.53-10.95-32.48-15.11-10.2-26.82-5.66S220,122.22,220,122.22Z" style="fill:#fff;stroke:#263238;stroke-linecap:round;stroke-linejoin:round"></path><path d="M234.37,131.54a19.47,19.47,0,0,1,11.41-7.09" style="fill:none;stroke:#263238;stroke-linecap:round;stroke-miterlimit:10;stroke-width:3px"></path><path d="M267.82,122.17s8.19,3.07,10.67,11.64" style="fill:none;stroke:#263238;stroke-linecap:round;stroke-miterlimit:10;stroke-width:3px"></path><path d="M255.08,167.55a2.16,2.16,0,1,1-4.28,0c0-1.36,1.07-1.51,2.26-1.51S255.08,166.19,255.08,167.55Z" style="fill:#263238;stroke:#263238;stroke-linecap:round;stroke-linejoin:round"></path><line x1="231.15" y1="141.84" x2="242.5" y2="140.51" style="fill:none;stroke:#263238;stroke-linecap:round;stroke-linejoin:round"></line><line x1="264.83" y1="141.27" x2="279.4" y2="143.92" style="fill:none;stroke:#263238;stroke-linecap:round;stroke-linejoin:round"></line><path d="M271,135.7c0,1.85-.9,3.36-2,3.36s-2-1.51-2-3.36.9-3.35,2-3.35S271,133.85,271,135.7Z" style="fill:#263238"></path><path d="M242.18,135c0,1.89-.94,3.43-2.11,3.43S238,136.84,238,135s.95-3.42,2.11-3.42S242.18,133.06,242.18,135Z" style="fill:#263238"></path><path d="M248.77,151.52a4.56,4.56,0,0,0,2.88,3.17c2.6,1.16,6.06,2.31,9.24-2.88" style="fill:none;stroke:#263238;stroke-linecap:round;stroke-linejoin:round"></path><path d="M327.23,126.12a1.16,1.16,0,0,0,0-.13A1.16,1.16,0,0,1,327.23,126.12Z" style="fill:none;stroke:#263238;stroke-linecap:round;stroke-linejoin:round"></path><path d="M322.33,139.21s1.51-1.13,3-4.53a30.73,30.73,0,0,0,1.88-8.56c-.06.5-.53,2.37-4.14,1.38-4.16-1.13-9.24-5.26-9.24-8.28s.93-26.46-6.25-35.15-17.37-9.82-23.41-6.42c0,0-12.85-11.33-23.8-12.84s-25.68,1.13-32.86,7.55S217.33,81.42,209.4,89a70.31,70.31,0,0,1-17,11.71,5.82,5.82,0,0,0,2.65,5.29,34.84,34.84,0,0,0,6.42,3,47.9,47.9,0,0,1-5.69,4,23.43,23.43,0,0,1-3.75,1.27l-2.65-.37s-.38,6,3,8.68,11.71,4.16,15.87-2.64a26.19,26.19,0,0,0-1.47,3.19l-8.43,9.75a12.68,12.68,0,0,1-10.44,4.67s.36,2.52,4,7.2,12.59,8.63,18.35,10.07a39,39,0,0,0,7.91,1.44s-.3-1.07-.61-2.79c2.13.77,3.6,1.28,3.6,1.28a50.7,50.7,0,0,1-.54-17.49c.24-1.71,2.43-4.36,3.22-5.59a30.29,30.29,0,0,1,13.79-10.79c7.31-2.48,13.83-2.16,20.86-5.34,3.64-1.65,13.25-6.53,13.25-11.46,0,0,3.78,15.1,10.2,24.17s12.46,24.17,12.46,24.17L292.12,166s4.53-2.64,18.13-8.69S328,144.5,329.13,141.48A19.45,19.45,0,0,1,331.4,137Z" style="fill:#263238;stroke:#263238;stroke-linecap:round;stroke-linejoin:round"></path><path d="M209.39,182.91s.82-38,1.64-42.08,6.29-7.11,6.29-7.11,7.65-7.65,9.56-8.47,3,1.1,2.19,3.28-6.29,10.38-6.29,10.38l-.27,11.48a47.55,47.55,0,0,1,9-5.19c4.64-1.91,15.3-4.65,16.12-4.37s-.55,3.28-3.28,5.19-9.56,4.1-10.38,4.92-6.56,7.1-6.56,7.1,9-3.28,11.75-4.64,10.38-6.83,10.66-3.83-5.2,6.56-8.2,8.74-12.84,6.84-12.84,8.48,0,12.84-1.64,18-3.56,7.1-7.65,9.56a111.72,111.72,0,0,1-10.39,5.2l-6.28-11.75S209.12,185.64,209.39,182.91Z" style="fill:#fff;stroke:#263238;stroke-linecap:round;stroke-linejoin:round"></path><path d="M217.32,133.72s-2.73,4.37-2.73,7.38.54,14.21.54,14.21" style="fill:none;stroke:#263238;stroke-linecap:round;stroke-linejoin:round"></path><path d="M319.55,381.18l-128.32-.35V453h1.54c19.24-5.53,40.79-10.37,66.63-10.42,26.2,0,46.34,1.22,63.8,1.48Z" style="fill:#263238;stroke:#263238;stroke-linecap:round;stroke-linejoin:round"></path><path d="M215.71,379.43c0,1.05-2.45,20.28-23.43,29" style="fill:none;stroke:#fff;stroke-linecap:round;stroke-linejoin:round"></path><path d="M316.71,411.52q1.21.41,2.49.78" style="fill:none;stroke:#fff;stroke-linecap:round;stroke-linejoin:round"></path><path d="M283.89,382.93s5.43,17.14,27.65,26.63" style="fill:none;stroke:#fff;stroke-linecap:round;stroke-linejoin:round"></path><polyline points="248.22 423.83 246.48 394.11 245.78 389.92 255.57 390.27 256.62 417.54" style="fill:none;stroke:#fff;stroke-linecap:round;stroke-linejoin:round"></polyline><line x1="266.33" y1="431.17" x2="234.24" y2="417.89" style="fill:none;stroke:#fff;stroke-linecap:round;stroke-linejoin:round"></line><line x1="274.8" y1="434.67" x2="271.21" y2="433.19" style="fill:none;stroke:#fff;stroke-linecap:round;stroke-linejoin:round"></line><line x1="254.17" y1="426.98" x2="254.17" y2="455.78" style="fill:none;stroke:#fff;stroke-linecap:round;stroke-linejoin:round"></line><path d="M188.44,369.64s-.35,9.79,1.39,12.94,18.89,11.88,60.84,11.88,67.48-8.74,70.63-11.18,3.49-2.45,3.49-4.55-.69-11.54-.69-11.54-36,8.74-82.17,5.25-54.19-7-54.19-7Z" style="fill:#92E3A9;stroke:#263238;stroke-linecap:round;stroke-linejoin:round"></path><path d="M268.6,207.45c-7.73,2.42-16.43,1.54-24.39-.53-9.61-2.49-18.81-6.57-28.6-8.24-17.77-3-34.06,2.73-48.25,13.15a493.35,493.35,0,0,0-45.68,38c-3.42,3.22-7.05,7-7.08,11.71-.06,7.7,9.17,11.85,16.86,12.27,19.84,1.09,38.38-9,55.66-18.85a244.86,244.86,0,0,1-7.25,101.87c-1.14,3.93-2.3,8.43-.11,11.88,1.69,2.64,4.88,3.84,7.86,4.79a216.9,216.9,0,0,0,129.56.67c2.9-.91,6-2,7.65-4.6,1.86-2.91,1.21-6.7.5-10.07q-7.87-37.59-15.76-75.17c4.24,6.45,6,14.16,8.05,21.61s4.58,15.08,9.92,20.66,14.23,8.49,21,4.8c4.78-2.6,7.6-7.9,8.52-13.27s.22-10.85-.49-16.24Q352.31,269.41,348,237c-1.61-12.18-3.81-25.53-13.15-33.52-6.8-5.81-16.09-7.58-25-8.63-8-1-16.47-1.4-23.69,2.16-4.64,2.29-8.4,6.09-13,8.53A27.08,27.08,0,0,1,268.6,207.45Z" style="fill:#fff"></path><path d="M317.62,305.92c.25.91.51,1.83.78,2.75h38.94c-.18-2.28-.47-4.55-.76-6.8q-.66-4.94-1.3-9.87H313.43A144.85,144.85,0,0,1,317.62,305.92Z" style="fill:#92E3A9"></path><path d="M125.8,246H349.23c-.4-3-.8-6-1.19-9.05-.33-2.51-.69-5.07-1.13-7.62h-202Q135.16,237.42,125.8,246Z" style="fill:#92E3A9"></path><path d="M179.87,356.81c-1.14,3.93-2.3,8.43-.11,11.88a8.55,8.55,0,0,0,2.81,2.64H323.21a7.64,7.64,0,0,0,1.62-1.78c1.86-2.91,1.21-6.7.5-10.07l-1-4.81H180.46C180.26,355.38,180.08,356.1,179.87,356.81Z" style="fill:#92E3A9"></path><path d="M273.26,205.49a27.08,27.08,0,0,1-4.66,2c-7.73,2.42-16.43,1.54-24.39-.53-9.61-2.49-18.81-6.57-28.6-8.24a56.88,56.88,0,0,0-6-.68h-7c-12.74.84-24.56,6-35.19,13.83-1.28.94-2.54,1.89-3.8,2.84H342.87A28.34,28.34,0,0,0,325.19,198H284.34C280.52,200.28,277.19,203.39,273.26,205.49Z" style="fill:#92E3A9"></path><path d="M314.68,308.67q-1.76-8.34-3.5-16.67H189.45q-.1,8.34-.79,16.67Z" style="fill:#92E3A9"></path><path d="M131.46,273.79c15.95.87,31-5.5,45.33-13.12H114.64a7.94,7.94,0,0,0,0,.85C114.54,269.22,123.77,273.37,131.46,273.79Z" style="fill:#92E3A9"></path><path d="M187.85,260.67c.65,5.53,1.08,11.09,1.35,16.66H353.35l-2.19-16.66Z" style="fill:#92E3A9"></path><path d="M324.89,323.33a27.44,27.44,0,0,0,2.65,3.25c5.34,5.58,14.23,8.49,21,4.8a16.27,16.27,0,0,0,7-8.05Z" style="fill:#92E3A9"></path><path d="M187,323.33q-1.18,8.39-3,16.67H321.25q-1.75-8.34-3.5-16.67Z" style="fill:#92E3A9"></path><g style="opacity:0.7000000000000001"><path d="M317.62,305.92c.25.91.51,1.83.78,2.75h38.94c-.18-2.28-.47-4.55-.76-6.8q-.66-4.94-1.3-9.87H313.43A144.85,144.85,0,0,1,317.62,305.92Z" style="fill:#fff"></path><path d="M125.8,246H349.23c-.4-3-.8-6-1.19-9.05-.33-2.51-.69-5.07-1.13-7.62h-202Q135.16,237.42,125.8,246Z" style="fill:#fff"></path><path d="M179.87,356.81c-1.14,3.93-2.3,8.43-.11,11.88a8.55,8.55,0,0,0,2.81,2.64H323.21a7.64,7.64,0,0,0,1.62-1.78c1.86-2.91,1.21-6.7.5-10.07l-1-4.81H180.46C180.26,355.38,180.08,356.1,179.87,356.81Z" style="fill:#fff"></path><path d="M273.26,205.49a27.08,27.08,0,0,1-4.66,2c-7.73,2.42-16.43,1.54-24.39-.53-9.61-2.49-18.81-6.57-28.6-8.24a56.88,56.88,0,0,0-6-.68h-7c-12.74.84-24.56,6-35.19,13.83-1.28.94-2.54,1.89-3.8,2.84H342.87A28.34,28.34,0,0,0,325.19,198H284.34C280.52,200.28,277.19,203.39,273.26,205.49Z" style="fill:#fff"></path><path d="M314.68,308.67q-1.76-8.34-3.5-16.67H189.45q-.1,8.34-.79,16.67Z" style="fill:#fff"></path><path d="M131.46,273.79c15.95.87,31-5.5,45.33-13.12H114.64a7.94,7.94,0,0,0,0,.85C114.54,269.22,123.77,273.37,131.46,273.79Z" style="fill:#fff"></path><path d="M187.85,260.67c.65,5.53,1.08,11.09,1.35,16.66H353.35l-2.19-16.66Z" style="fill:#fff"></path><path d="M324.89,323.33a27.44,27.44,0,0,0,2.65,3.25c5.34,5.58,14.23,8.49,21,4.8a16.27,16.27,0,0,0,7-8.05Z" style="fill:#fff"></path><path d="M187,323.33q-1.18,8.39-3,16.67H321.25q-1.75-8.34-3.5-16.67Z" style="fill:#fff"></path></g><polygon points="187.12 254.94 198 244 189 266 187.12 254.94" style="fill:#263238;stroke:#263238;stroke-linecap:round;stroke-linejoin:round"></polygon><path d="M263.23,360.84a113.09,113.09,0,0,1-11.66,6" style="fill:none;stroke:#263238;stroke-miterlimit:10"></path><path d="M307.48,324S290.86,342.76,269.3,357" style="fill:none;stroke:#263238;stroke-miterlimit:10"></path><path d="M227.34,364c-1.23.48-2.47,1-3.72,1.42" style="fill:none;stroke:#263238;stroke-miterlimit:10"></path><path d="M268.54,345.41s-16,8.36-35.94,16.46" style="fill:none;stroke:#263238;stroke-miterlimit:10"></path><line x1="200.66" y1="241.59" x2="206.65" y2="236.1" style="fill:none;stroke:#263238;stroke-miterlimit:10"></line><path d="M235.29,207.62s21.74,10.87,44,14.83" style="fill:none;stroke:#263238;stroke-miterlimit:10"></path><path d="M271.06,225q2.54.53,5.24,1" style="fill:none;stroke:#263238;stroke-miterlimit:10"></path><path d="M244.68,216a100.7,100.7,0,0,0,19.9,7.4" style="fill:none;stroke:#263238;stroke-miterlimit:10"></path><path d="M268.6,207.45c-7.73,2.42-16.43,1.54-24.39-.53-9.61-2.49-18.81-6.57-28.6-8.24-17.77-3-34.06,2.73-48.25,13.15a493.35,493.35,0,0,0-45.68,38c-3.42,3.22-7.05,7-7.08,11.71-.06,7.7,9.17,11.85,16.86,12.27,19.84,1.09,38.38-9,55.66-18.85a244.86,244.86,0,0,1-7.25,101.87c-1.14,3.93-2.3,8.43-.11,11.88,1.69,2.64,4.88,3.84,7.86,4.79a216.9,216.9,0,0,0,129.56.67c2.9-.91,6-2,7.65-4.6,1.86-2.91,1.21-6.7.5-10.07q-7.87-37.59-15.76-75.17c4.24,6.45,6,14.16,8.05,21.61s4.58,15.08,9.92,20.66,14.23,8.49,21,4.8c4.78-2.6,7.6-7.9,8.52-13.27s.22-10.85-.49-16.24Q352.31,269.41,348,237c-1.61-12.18-3.81-25.53-13.15-33.52-6.8-5.81-16.09-7.58-25-8.63-8-1-16.47-1.4-23.69,2.16-4.64,2.29-8.4,6.09-13,8.53A27.08,27.08,0,0,1,268.6,207.45Z" style="fill:none;stroke:#263238;stroke-miterlimit:10"></path><polygon points="202.5 185.5 215 206.67 198.33 218 188 192 202.5 185.5" style="fill:#92E3A9;stroke:#263238;stroke-linecap:round;stroke-linejoin:round"></polygon><rect x="275.73" y="130.63" width="28.32" height="60.84" rx="4.55" transform="translate(49.89 -67.8) rotate(14.58)" style="fill:#92E3A9;stroke:#263238;stroke-linecap:round;stroke-linejoin:round"></rect><path d="M308.58,139.9a2.45,2.45,0,1,1-1.75-3A2.44,2.44,0,0,1,308.58,139.9Z" style="fill:#fff;stroke:#263238;stroke-linecap:round;stroke-linejoin:round"></path><path d="M307.07,221.36l-7.41-16.84s8.76-24.91,7.75-29S296,156.72,295,155.37s-5.39-4.71-6.73-3.37.33,3.37,2,6.06,6.39,10.1,6.39,11.45,1,7.41,1,7.41-8.08-10.78-11.78-12.46-8.75-3.37-11.78-3.37-.34,3.37,1,4,7.74,3.71,8.41,4.72S293.94,184,293.94,184s-9.09-6.4-11.11-7.07-13.47,1-15.49,1,0,3,1,3,12.8,1,12.8,1l9.42,8.08s-10.77-3.71-12.12-3.71S271.38,188,269,188s-.34,2.69,4,2.35a49.75,49.75,0,0,1,7.74,0l7.07,6.4s-4.38,13.81-2.69,18.18,11.44,12.8,11.44,12.8Z" style="fill:#fff;stroke:#263238;stroke-linecap:round;stroke-linejoin:round"></path><polygon points="311.27 214.88 290.63 226.73 297.85 245.76 321.47 230.25 311.27 214.88" style="fill:#92E3A9;stroke:#263238;stroke-linecap:round;stroke-linejoin:round"></polygon><path d="M312.49,314.77c-.27-1.06-.55-2.12-.86-3.2-3.37-11.47-8.53-22.22-12.63-33.43-2-5.56-4.06-11.14-5.89-16.78-.8-2.48-2.47-5.88-2.25-8.57.39-4.66,2.21-6.67,5.11-10.81s25.11-15.29,25.11-15.29,6-.32,8.8,3.29,28.53,66,30,74.49-3.44,27.2-17.68,32.84c-9.28,3.68-18.46-3.77-24.29-10.27C314.66,323.4,313.64,319.21,312.49,314.77Z" style="fill:#fff"></path><path d="M359.89,304.47q-.06-.35-.18-.81L316.36,325a17.18,17.18,0,0,0,1.56,2.06c3.3,3.68,7.68,7.67,12.54,9.76l25.33-12.45C359.53,317.24,360.72,309.22,359.89,304.47Z" style="fill:#92E3A9"></path><path d="M333.71,237.8,292,258.32c.4,1.08.81,2.12,1.11,3,1.41,4.35,2.94,8.66,4.5,13l42.76-21C337.88,247.32,335.55,241.92,333.71,237.8Z" style="fill:#92E3A9"></path><path d="M353.58,286.11c-1.86-4.85-4-10.24-6.18-15.71l-43.1,21.19c2.13,5.22,4.23,10.45,6,15.8Z" style="fill:#92E3A9"></path><g style="opacity:0.7000000000000001"><path d="M359.89,304.47q-.06-.35-.18-.81L316.36,325a17.18,17.18,0,0,0,1.56,2.06c3.3,3.68,7.68,7.67,12.54,9.76l25.33-12.45C359.53,317.24,360.72,309.22,359.89,304.47Z" style="fill:#fff"></path><path d="M333.71,237.8,292,258.32c.4,1.08.81,2.12,1.11,3,1.41,4.35,2.94,8.66,4.5,13l42.76-21C337.88,247.32,335.55,241.92,333.71,237.8Z" style="fill:#fff"></path><path d="M353.58,286.11c-1.86-4.85-4-10.24-6.18-15.71l-43.1,21.19c2.13,5.22,4.23,10.45,6,15.8Z" style="fill:#fff"></path></g><path d="M312.49,314.77c-.27-1.06-.55-2.12-.86-3.2-3.37-11.47-8.53-22.22-12.63-33.43-2-5.56-4.06-11.14-5.89-16.78-.8-2.48-2.47-5.88-2.25-8.57.39-4.66,2.21-6.67,5.11-10.81s25.11-15.29,25.11-15.29,6-.32,8.8,3.29,28.53,66,30,74.49-3.44,27.2-17.68,32.84c-9.28,3.68-18.46-3.77-24.29-10.27C314.66,323.4,313.64,319.21,312.49,314.77Z" style="fill:none;stroke:#263238;stroke-miterlimit:10"></path><path d="M147,265.33s50.67-33.66,53-37.66,2-6.67,2-11.67-11.67-26.67-11.67-26.67-4.66-3.66-9-2.33-60.66,37.33-66.66,43.33-12.67,24-4.34,36.67S142,270.67,142,270.67" style="fill:#fff"></path><path d="M141.55,211.51c-5,3.26-9.75,6.44-13.89,9.26l24.13,41.36c3.43-2.3,8.39-5.63,13.84-9.35Z" style="fill:#92E3A9"></path><path d="M113.13,232.12a36.92,36.92,0,0,0-6.7,21.59l10.94,18.74c6.25,2.31,14.08,1.13,19.21-.14Z" style="fill:#92E3A9"></path><path d="M171.07,192.79c-4,2.46-8.94,5.51-14.15,8.82l23.8,40.78c5.22-3.66,10.05-7.12,13.58-9.8Z" style="fill:#92E3A9"></path><g style="opacity:0.7000000000000001"><path d="M141.55,211.51c-5,3.26-9.75,6.44-13.89,9.26l24.13,41.36c3.43-2.3,8.39-5.63,13.84-9.35Z" style="fill:#fff"></path><path d="M113.13,232.12a36.92,36.92,0,0,0-6.7,21.59l10.94,18.74c6.25,2.31,14.08,1.13,19.21-.14Z" style="fill:#fff"></path><path d="M171.07,192.79c-4,2.46-8.94,5.51-14.15,8.82l23.8,40.78c5.22-3.66,10.05-7.12,13.58-9.8Z" style="fill:#fff"></path></g><path d="M147,265.33s50.67-33.66,53-37.66,2-6.67,2-11.67-11.67-26.67-11.67-26.67-4.66-3.66-9-2.33-60.66,37.33-66.66,43.33-12.67,24-4.34,36.67S142,270.67,142,270.67" style="fill:none;stroke:#263238;stroke-miterlimit:10"></path></g></svg>